<svg id="Layer_1" data-name="Layer 1" xmlns="http://www.w3.org/2000/svg" xmlns:xlink="http://www.w3.org/1999/xlink" viewBox="0 0 500 100"><defs><style>.cls-1{fill:url(#linear-gradient);}.cls-2{fill:url(#linear-gradient-2);}.cls-3{fill:url(#linear-gradient-3);}.cls-4{fill:url(#linear-gradient-4);}.cls-5{fill:url(#linear-gradient-7);}</style><linearGradient id="linear-gradient" x1="-1.76" y1="50" x2="497" y2="50" gradientUnits="userSpaceOnUse"><stop offset="0" stop-color="#1a5f73"/><stop offset="1" stop-color="#5cc982"/></linearGradient><linearGradient id="linear-gradient-2" x1="-1.76" x2="497" xlink:href="#linear-gradient"/><linearGradient id="linear-gradient-3" x1="-1.76" y1="60.08" x2="497" y2="60.08" xlink:href="#linear-gradient"/><linearGradient id="linear-gradient-4" x1="-1.76" y1="53.34" x2="497" y2="53.34" xlink:href="#linear-gradient"/><linearGradient id="linear-gradient-7" x1="12.55" y1="49.37" x2="493.62" y2="49.37" xlink:href="#linear-gradient"/></defs><title>logo</title><path class="cls-1" d="M6.89,50c0-23.44,17.71-38.72,38.82-38.72,10.29,0,22.6,3.61,30.55,16.34L65.65,34.94c-4.87-7-12.19-9.87-19.51-9.87-13.37,0-24.4,9.66-24.4,24.93s11.14,24.93,24.5,24.93c7.53,0,14.54-2.87,19.41-9.87l10.61,7.32C68.31,85.11,56,88.72,45.71,88.72,24.5,88.72,6.89,73.44,6.89,50Z"/><path class="cls-2" d="M84.85,12.34H99.06V40c3.08-4.88,8.6-8.59,16.87-8.59,11.35,0,20.9,7,20.9,23.76V87.66H122.61V57.53c0-8.06-4.35-13.36-11.77-13.36s-11.78,5.3-11.78,13.36V87.66H84.85Z"/><path class="cls-3" d="M145,60.08c0-19.1,13.69-28.64,26.52-28.64,9.87,0,16.23,5.41,17.61,8.48h.32V32.5h14.21V87.66H189.44V80.23h-.32c-1.38,3.08-7.74,8.49-17.61,8.49C158.68,88.72,145,79.17,145,60.08ZM174.37,76c8,0,15.39-5.52,15.39-15.91s-7.43-15.91-15.39-15.91S159,49.79,159,60.08,166.42,76,174.37,76Z"/><path class="cls-4" d="M219.67,72.38V43.85h-7.85V32.5h7.85V18.39H234V32.5h11.35V43.85H234v26.2c0,2.86,1.59,5.62,6.25,5.62a17.86,17.86,0,0,0,5.2-.85V85.75c-2.12,1.91-6.15,2.54-9.65,2.54C226.45,88.29,219.67,83.73,219.67,72.38Z"/><path class="cls-2" d="M254,12.34h16l24.61,56.75,24.61-56.75h16V87.66H320.75V40.35h-.53L300,87.66H289.25L269.09,40.35h-.53V87.66H254Z"/><path class="cls-2" d="M346.1,12.34h42.64V25.71H360.63v17.5h23.66V56.36H360.63V74.29H389.7V87.66H346.1Z"/><path class="cls-5" d="M493,41.76a27.84,27.84,0,0,0-4.95-13.28,36.43,36.43,0,0,0-14.41-11.8A46.67,46.67,0,0,0,438.59,15a37.88,37.88,0,0,0-17.14,11.64,27.32,27.32,0,0,0-2.38,30.85c5.61,9.49,16.09,15.25,26.72,17.13a16,16,0,0,1,3.48.73c1.75.73,2.13,1.28,2.16,2.89a32.41,32.41,0,0,1-.6,4.92c-.12.91-.54,1.93.26,2.7s1.82.35,2.69,0a34,34,0,0,0,6.29-3.32c9.24-5.8,19.07-12.05,26-20.64A30.45,30.45,0,0,0,493,46.25,24.05,24.05,0,0,0,493,41.76ZM437.7,48.39a5,5,0,1,1,5-5A5,5,0,0,1,437.7,48.39Zm17,0a5,5,0,1,1,5-5A5,5,0,0,1,454.7,48.39Zm17,0a5,5,0,1,1,5-5A5,5,0,0,1,471.7,48.39Z"/></svg>