<?xml version="1.0" encoding="utf-8"?>
<!-- Generator: Adobe Illustrator 23.0.5, SVG Export Plug-In . SVG Version: 6.00 Build 0)  -->
<svg version="1.1" id="Layer_1" xmlns="http://www.w3.org/2000/svg" xmlns:xlink="http://www.w3.org/1999/xlink" x="0px" y="0px"
	 viewBox="0 0 50 50" style="enable-background:new 0 0 50 50;" xml:space="preserve">
<style type="text/css">
	.st0{fill:#0085FF;}
</style>
<g>
	<path class="st0" d="M13,33.8c0.2-0.7,0.4-1.4,0.6-2c0.5-1.4,1.3-2.7,2.3-3.8c1.4-1.6,3.1-2.7,5.1-3.4c0,0,0.1,0,0.2-0.1
		c-1.6-1.3-2.5-3-2.5-5.1c0-1.7,0.6-3.3,1.9-4.5c2.5-2.5,6.4-2.5,9,0c2.4,2.3,2.8,6.9-0.6,9.6c0.4,0.2,0.9,0.4,1.3,0.5
		c0.4,0.2,0.7,0.6,0.6,1c-0.1,0.6-0.7,0.9-1.3,0.7c-0.6-0.2-1.3-0.5-1.9-0.7c-2.5-0.6-4.9-0.4-7.2,0.8c-2,1-3.5,2.5-4.5,4.5
		c-0.4,0.8-0.7,1.6-0.9,2.5c-0.1,0.6,0.2,1.1,0.8,1.2c0.1,0,0.2,0,0.3,0c3.7,0,7.5,0,11.2,0c0.2,0,0.3,0,0.5,0.1
		c0.4,0.1,0.6,0.4,0.6,0.8c0,0.4-0.2,0.7-0.5,0.9c-0.1,0-0.1,0.1-0.2,0.1c-4,0-8.1,0-12.1,0c0,0-0.1,0-0.1,0c-0.9-0.2-1.6-0.7-2-1.5
		c-0.2-0.3-0.2-0.6-0.3-1C13,34.3,13,34,13,33.8z M29.5,19.4c0-2.5-2-4.5-4.5-4.5c-2.5,0-4.5,2-4.5,4.5c0,2.4,2,4.5,4.4,4.5
		C27.5,23.9,29.5,21.9,29.5,19.4z"/>
	<path class="st0" d="M32.4,37c-0.6-0.2-0.8-0.6-0.8-1.2c0-0.8,0-1.5,0-2.3c-0.1,0-0.2,0-0.3,0c-0.7,0-1.5,0-2.2,0
		c-0.6,0-1-0.4-1-0.9c0-0.6,0.4-0.9,1-0.9c0.8,0,1.6,0,2.5,0c0-0.1,0-0.2,0-0.3c0-0.7,0-1.5,0-2.2c0-0.6,0.4-1,0.9-1
		c0.5,0,0.9,0.4,0.9,1c0,0.8,0,1.6,0,2.5c0.1,0,0.2,0,0.3,0c0.7,0,1.4,0,2.1,0c0.6,0,1,0.2,1.2,0.8c0,0.1,0,0.3,0,0.4
		c-0.2,0.6-0.6,0.8-1.2,0.8c-0.7,0-1.4,0-2.1,0c-0.1,0-0.2,0-0.3,0c0,0.8,0,1.6,0,2.3c0,0.6-0.2,1-0.8,1.2C32.6,37,32.5,37,32.4,37z
		"/>
</g>
</svg>
