<?xml version="1.0" encoding="utf-8"?>
<!-- Generator: Adobe Illustrator 23.0.5, SVG Export Plug-In . SVG Version: 6.00 Build 0)  -->
<svg version="1.1" id="Layer_1" xmlns="http://www.w3.org/2000/svg" xmlns:xlink="http://www.w3.org/1999/xlink" x="0px" y="0px"
	 viewBox="0 0 50 50" style="enable-background:new 0 0 50 50;" xml:space="preserve">
<style type="text/css">
	.st0{fill:#0085FF;}
</style>
<path class="st0" d="M39.3,33.8c0.6,0.8,0,1.8-0.9,1.8H11.2c-0.3,0-0.6-0.1-0.7-0.4c-0.1-0.3-0.1-0.5,0.1-0.8l3.8-5
	c0.2-0.2,0.4-0.3,0.6-0.3c0.2,0,0.4,0.1,0.6,0.3l3.5,4.8l5.3-6.8l4.1-5.3c0.6-0.7,1.6-0.7,2.2,0L39.3,33.8z"/>
<path class="st0" d="M45.6,4.4c-0.8-0.8-1.7-1.2-2.9-1.2H7.3c-1.1,0-2,0.4-2.8,1.2C3.6,5.2,3.2,6.2,3.2,7.3v35.4
	c0,1.1,0.4,2,1.2,2.8c0.8,0.8,1.8,1.2,2.8,1.2h35.4c1.1,0,2.1-0.4,2.9-1.2c0.8-0.8,1.2-1.8,1.2-2.8V7.3C46.8,6.2,46.4,5.2,45.6,4.4z
	 M42.7,42.7H7.3V7.3h35.4V42.7z"/>
</svg>
