<?xml version="1.0" encoding="utf-8"?>
<!-- Generator: Adobe Illustrator 23.0.5, SVG Export Plug-In . SVG Version: 6.00 Build 0)  -->
<svg version="1.1" id="Layer_1" xmlns="http://www.w3.org/2000/svg" xmlns:xlink="http://www.w3.org/1999/xlink" x="0px" y="0px"
	 viewBox="0 0 500 100" style="enable-background:new 0 0 500 100;" xml:space="preserve">
<style type="text/css">
	.st0{fill:#FFFFFF;}
</style>
<g>
	<path class="st0" d="M10.3,49.9c0-23.4,17.7-38.7,38.8-38.7c10.3,0,22.6,3.6,30.5,16.3L69,34.8c-4.9-7-12.2-9.9-19.5-9.9
		c-13.4,0-24.4,9.7-24.4,24.9s11.1,24.9,24.5,24.9c7.5,0,14.5-2.9,19.4-9.9l10.6,7.3C71.8,85,59.4,88.6,49.1,88.6
		C27.9,88.6,10.3,73.3,10.3,49.9z"/>
	<path class="st0" d="M88.3,12.2h14.2v27.7c3.1-4.9,8.6-8.6,16.9-8.6c11.3,0,20.9,7,20.9,23.8v32.5h-14.2V57.4
		c0-8.1-4.3-13.4-11.8-13.4s-11.8,5.3-11.8,13.4v30.1H88.3V12.2z"/>
	<path class="st0" d="M148.4,60c0-19.1,13.7-28.6,26.5-28.6c9.9,0,16.2,5.4,17.6,8.5h0.3v-7.4h14.2v55.2h-14.2v-7.4h-0.3
		c-1.4,3.1-7.7,8.5-17.6,8.5C162.1,88.6,148.4,79.1,148.4,60z M177.8,75.9c8,0,15.4-5.5,15.4-15.9s-7.4-15.9-15.4-15.9
		s-15.4,5.6-15.4,15.9S169.8,75.9,177.8,75.9z"/>
	<path class="st0" d="M223.1,72.3V43.7h-7.9V32.4h7.9V18.3h14.3v14.1h11.4v11.3h-11.4v26.2c0,2.9,1.6,5.6,6.3,5.6
		c1.8,0,3.5-0.3,5.2-0.8v10.9c-2.1,1.9-6.1,2.5-9.6,2.5C229.8,88.2,223.1,83.6,223.1,72.3z"/>
	<path class="st0" d="M257.4,12.2h16L298,68.9l24.6-56.8h16v75.3h-14.5V40.2h-0.5l-20.2,47.4h-10.8l-20.2-47.3h-0.5v47.3h-14.5V12.2
		z"/>
	<path class="st0" d="M349.5,12.2h42.6v13.4H364v17.5h23.7v13.2H364v17.9h29.1v13.4h-43.6V12.2z"/>
	<path class="st0" d="M496.4,41.7c-0.5-4.8-2.2-9.4-5-13.3c-3.7-5.1-8.7-9.2-14.4-11.8c-11-5.1-23.6-5.7-35-1.7
		c-6.7,2.2-12.6,6.2-17.1,11.6c-7.1,8.8-8,21.1-2.4,30.8c5.6,9.5,16.1,15.3,26.7,17.1c1.2,0.1,2.4,0.4,3.5,0.7
		c1.8,0.7,2.1,1.3,2.2,2.9c-0.1,1.7-0.3,3.3-0.6,4.9c-0.1,0.9-0.5,1.9,0.3,2.7c0.8,0.8,1.8,0.3,2.7,0c2.2-0.9,4.3-2,6.3-3.3
		c9.2-5.8,19.1-12,26-20.6c3.8-4.4,6.2-9.9,6.9-15.6C496.5,44.7,496.5,43.2,496.4,41.7z M438.8,49.2c-2.6,0-4.7-2.1-4.7-4.7
		c0-2.6,2.1-4.7,4.7-4.7s4.7,2.1,4.7,4.7C443.5,47.1,441.5,49.2,438.8,49.2z M456.8,49.2c-2.6,0-4.7-2.1-4.7-4.7
		c0-2.6,2.1-4.7,4.7-4.7s4.7,2.1,4.7,4.7C461.5,47.1,459.4,49.2,456.8,49.2z M474.8,49.2c-2.6,0-4.7-2.1-4.7-4.7
		c0-2.6,2.1-4.7,4.7-4.7s4.7,2.1,4.7,4.7C479.5,47.1,477.4,49.2,474.8,49.2z"/>
</g>
</svg>
