<?xml version="1.0" encoding="utf-8"?>
<!-- Generator: Adobe Illustrator 23.0.5, SVG Export Plug-In . SVG Version: 6.00 Build 0)  -->
<svg version="1.1" id="Layer_1" xmlns="http://www.w3.org/2000/svg" xmlns:xlink="http://www.w3.org/1999/xlink" x="0px" y="0px"
	 viewBox="0 0 500 100" style="enable-background:new 0 0 500 100;" xml:space="preserve">
<style type="text/css">
	.st0{fill:#2584FE;}
</style>
<title>logo</title>
<path class="st0" d="M6.9,50c0-23.4,17.7-38.7,38.8-38.7c10.3,0,22.6,3.6,30.5,16.3l-10.6,7.3c-4.9-7-12.2-9.9-19.5-9.9
	c-13.4,0-24.4,9.7-24.4,24.9s11.1,24.9,24.5,24.9c7.5,0,14.5-2.9,19.4-9.9l10.6,7.3C68.3,85.1,56,88.7,45.7,88.7
	C24.5,88.7,6.9,73.4,6.9,50z"/>
<path class="st0" d="M84.8,12.3h14.2V40c3.1-4.9,8.6-8.6,16.9-8.6c11.3,0,20.9,7,20.9,23.8v32.5h-14.2V57.5
	c0-8.1-4.3-13.4-11.8-13.4s-11.8,5.3-11.8,13.4v30.1H84.8V12.3z"/>
<path class="st0" d="M145,60.1c0-19.1,13.7-28.6,26.5-28.6c9.9,0,16.2,5.4,17.6,8.5h0.3v-7.4h14.2v55.2h-14.2v-7.4h-0.3
	c-1.4,3.1-7.7,8.5-17.6,8.5C158.7,88.7,145,79.2,145,60.1z M174.4,76c8,0,15.4-5.5,15.4-15.9s-7.4-15.9-15.4-15.9S159,49.8,159,60.1
	S166.4,76,174.4,76z"/>
<path class="st0" d="M219.7,72.4V43.8h-7.9V32.5h7.9V18.4H234v14.1h11.4v11.3H234v26.2c0,2.9,1.6,5.6,6.3,5.6c1.8,0,3.5-0.3,5.2-0.8
	v10.9c-2.1,1.9-6.1,2.5-9.6,2.5C226.4,88.3,219.7,83.7,219.7,72.4z"/>
<path class="st0" d="M254,12.3h16l24.6,56.7l24.6-56.8h16v75.3h-14.5V40.3h-0.5L300,87.7h-10.8l-20.2-47.3h-0.5v47.3H254V12.3z"/>
<path class="st0" d="M346.1,12.3h42.6v13.4h-28.1v17.5h23.7v13.2h-23.7v17.9h29.1v13.4h-43.6V12.3z"/>
<path class="st0" d="M493,41.8c-0.5-4.8-2.2-9.4-5-13.3c-3.7-5.1-8.7-9.2-14.4-11.8c-11-5.1-23.6-5.7-35-1.7
	c-6.7,2.2-12.6,6.2-17.1,11.6c-7.1,8.8-8,21.1-2.4,30.8c5.6,9.5,16.1,15.3,26.7,17.1c1.2,0.1,2.4,0.4,3.5,0.7
	c1.8,0.7,2.1,1.3,2.2,2.9c-0.1,1.7-0.3,3.3-0.6,4.9c-0.1,0.9-0.5,1.9,0.3,2.7c0.8,0.8,1.8,0.3,2.7,0c2.2-0.9,4.3-2,6.3-3.3
	c9.2-5.8,19.1-12,26-20.6c3.8-4.4,6.2-9.9,6.9-15.6C493.1,44.8,493.1,43.3,493,41.8z M435.4,49.3c-2.6,0-4.7-2.1-4.7-4.7
	s2.1-4.7,4.7-4.7c2.6,0,4.7,2.1,4.7,4.7S438.1,49.3,435.4,49.3z M453.4,49.3c-2.6,0-4.7-2.1-4.7-4.7s2.1-4.7,4.7-4.7
	s4.7,2.1,4.7,4.7S456,49.3,453.4,49.3z M471.4,49.3c-2.6,0-4.7-2.1-4.7-4.7s2.1-4.7,4.7-4.7s4.7,2.1,4.7,4.7S474,49.3,471.4,49.3z"
	/>
</svg>
