<?xml version="1.0" encoding="utf-8"?>
<!-- Generator: Adobe Illustrator 23.0.5, SVG Export Plug-In . SVG Version: 6.00 Build 0)  -->
<svg version="1.1" id="Layer_1" xmlns="http://www.w3.org/2000/svg" xmlns:xlink="http://www.w3.org/1999/xlink" x="0px" y="0px"
	 viewBox="0 0 30 30" style="enable-background:new 0 0 30 30;" xml:space="preserve">
<style type="text/css">
	.st0{fill:#FFFFFF;}
</style>
<g>
	<path class="st0" d="M0.9,5.9C0.9,5.8,1,5.7,1,5.6c0.3-0.7,0.9-1.2,1.6-1.2c8.3,0,16.5,0,24.8,0c0.7,0,1.4,0.5,1.6,1.2
		c0,0.1,0.1,0.2,0.1,0.3c0,0.2,0,0.4,0,0.7c0,0.1-0.1,0.1-0.1,0.2C28.8,7.5,28.1,8,27.3,8C19.1,8,10.8,8,2.6,8
		C1.9,7.9,1.2,7.5,1,6.7c0-0.1-0.1-0.2-0.1-0.2C0.9,6.3,0.9,6.1,0.9,5.9z"/>
	<path class="st0" d="M29.1,15.3c0,0.1-0.1,0.1-0.1,0.2c-0.2,0.7-0.9,1.2-1.7,1.2c-8.2,0-16.5,0-24.7,0c-0.8,0-1.4-0.5-1.7-1.2
		c0-0.1-0.1-0.2-0.1-0.2c0-0.2,0-0.4,0-0.7c0-0.1,0.1-0.2,0.1-0.2c0.3-0.7,0.9-1.2,1.7-1.2c8.2,0,16.5,0,24.7,0
		c0.8,0,1.4,0.5,1.7,1.2c0,0.1,0.1,0.2,0.1,0.2C29.1,14.9,29.1,15.1,29.1,15.3z"/>
	<path class="st0" d="M29.1,24.1c0,0.1-0.1,0.1-0.1,0.2c-0.2,0.7-0.9,1.2-1.7,1.2c-8.2,0-16.5,0-24.7,0c-0.8,0-1.4-0.5-1.7-1.2
		c0-0.1-0.1-0.2-0.1-0.2c0-0.2,0-0.4,0-0.7c0-0.1,0.1-0.2,0.1-0.2C1.2,22.5,1.8,22,2.6,22c8.2,0,16.5,0,24.7,0
		c0.8,0,1.4,0.5,1.7,1.2c0,0.1,0.1,0.2,0.1,0.2C29.1,23.7,29.1,23.9,29.1,24.1z"/>
</g>
</svg>
